@startuml
skinparam classAttributeIconSize 0
skinparam padding 2
skinparam ranksep 100
skinparam classFontSize 18

class SNSUser{
-name
-address
-gender
-email
-birthDate
-snsUserNumber
-citizenCardNumber
}
class Receptionist

class VaccineSchedule
{
vaccinationDate
SnsUser
VaccineType
}

class WaitingRoom
class VaccinationCenter
{
-name
-address
-phoneNumber
-emailAddress
-faxNumber
-websiteAddress
-openingHours
-openingMinutes
-closingHours
-closingMinutes
-slotDuration
-maxNumberVaccines

}
class Company {
-designation
}

class Platform{
-description
}

class Day
{
-date
-openingHours
-openingMinutes
-closingHours
-closingMinutes
-slotDuration
-maxNumberVaccines
}

class Slot
{
-hour
}

class Employee
{
  -id
  -name;
  -address;
  -phoneNumber;
  -emailAddress;
  -citizenCardNumber;
  -{static}count_num_employees
}


Company "1" -- "1" Platform : has >
Platform "1" -- "*" VaccinationCenter : registered in <
Receptionist "1" -- "*" VaccineSchedule : confirms >
VaccineSchedule "1..*" -- "1" SNSUser : created for >
WaitingRoom "1" -- "*" SNSUser : contains >
VaccinationCenter "1" -- "*" Day : contains >
Day "1" -- "*" Slot : contains >
Slot "1" -- "*" VaccineSchedule : contains >
Employee <|-- Receptionist
WaitingRoom "1" -- "1" VaccinationCenter : has <

@enduml