@startuml Domain Model
skinparam classAttributeIconSize 0
hide methods
left to right direction
skinparam padding 2
skinparam ranksep 100
skinparam classFontSize 18

class Administrator

class CenterCoordinator

class Receptionist

class Nurse

class SNSUser {
name
birthDate
}

class Report

class ReportType

class Company {
designation
}
note right
In this particular case, Company will represent DGS
end note

class VaccinationCenter{
name
address
phoneNumber
emailAddress
faxNumber
websiteAddress
openingHours
closingHours
slotDuration
maxNumberVaccines
}

class Vaccine

class VaccineAdministration

class CommunityMassVaccinationCenter

class HealthCareCenter

class VaccineType{
code
designation
whold
}

class VaccineSchedule{
userNumber
vaccinationCenter
date
time
}

class AdministrationProcess{
designation
ageGroup
ReferenceDose
dosage
timeInterval
}

class ScheduleValidation

class Notification

class SMSNotification

class EmailNotification

class RecoveryRoom

class AdverseReaction
{
Date
}

class UserHealthHistory

class WaitingRoom

class VaccinationCertificate

class DigitalCertificate

class Platform
note right
Registers Nurse, SNSUser, Receptionist, Administrator, CenterCoordinator
end note

class Analysis

class UserArrivalDate
note left
Registers SNSUser arrival by Receptionist
end note


Platform "1" -- "*" Nurse : registers in <
Platform "1" -- "*" Receptionist : registers in <
Platform "1" -- "*" SNSUser : registers in <
Platform "1" -- "*" CenterCoordinator : registers in <
CenterCoordinator "1"-- "*" Analysis : analyses >
Analysis "*" -- "1" Report : gets analised by >
Report "*" -- "1" ReportType : is of >
Company "1" -- "1" Platform : has >
Company "1" -- "*" VaccinationCenter : manages >
Company "1" -- "*" Administrator : has >

VaccinationCenter "1" -- "*" Vaccine : applies >
VaccinationCenter <|-- CommunityMassVaccinationCenter
VaccinationCenter <|-- HealthCareCenter
HealthCareCenter "1" -- "*" VaccineType : can administer >
CommunityMassVaccinationCenter "*" -- "1" VaccineType : can administer >
Vaccine "1" --- "*" VaccineAdministration : of <
Vaccine "*" -- "1" VaccineType : is of >
Vaccine "1" -- "*" AdministrationProcess : has >
VaccineSchedule "1" -- "1" ScheduleValidation : confirms <
VaccineAdministration "0..1" -- "0..1" VaccineSchedule : fulfilling >
ScheduleValidation "1" -- "0..1" Notification : emits >
Notification <|-- SMSNotification
Notification <|-- EmailNotification
VaccineSchedule "*" -- "1" SNSUser : created for >
VaccineAdministration "*" -- "1" SNSUser : administrated on >
VaccineAdministration "*" -- "1" Nurse : is done by >
Nurse "*" -- "1" RecoveryRoom : sends user to >
Nurse "*" -- "1..*" WaitingRoom : checks list >
SNSUser "*"-- "1" UserHealthHistory : has >
UserHealthHistory "1" --- "*" AdverseReaction : has >
AdverseReaction "1" -- "1" Vaccine : has >
WaitingRoom "1" --- "*" SNSUser : has >
RecoveryRoom "1" --- "*" SNSUser : has >
UserArrivalDate "1" -- "1" VaccineSchedule : registers <
RecoveryRoom "1" ---- "*" Notification : sends user a >
VaccineSchedule "*" -- "1" VaccineType : for taking >
Receptionist "1" --- "*" VaccineSchedule : confirms >
DigitalCertificate "1" -- "1" SNSUser : requests <
VaccinationCertificate "*" --- "1" Nurse : delivers <
VaccinationCertificate <|-- DigitalCertificate
Report "*" -- "1" VaccinationCenter : reports <
CenterCoordinator "1" -- "1" VaccinationCenter : manages >


@enduml